<svg width="30" height="30" viewBox="0 0 30 30" fill="none" xmlns="http://www.w3.org/2000/svg">
<path d="M4.87856 0.368774L0.1875 5.06002L2.85794 6.53503L1.17169 8.21952L7.897 12.2744C5.36931 16.6587 5.977 22.3413 9.722 26.0843C14.1973 30.5597 21.4556 30.5585 25.9317 26.0843C30.408 21.6101 30.4094 14.3559 25.9341 9.88303C22.1894 6.14065 16.5031 5.5349 12.1163 8.05946L8.0595 1.33846L7.532 1.86546L6.37025 3.02609L4.87856 0.368774ZM7.83006 3.21865L11.7261 9.67334L12.2322 9.34534C14.9954 7.5539 18.4206 7.21759 21.4301 8.34046C21.3576 8.33884 21.2846 8.33796 21.2112 8.33796C18.7744 8.33796 16.7991 9.2634 16.7991 10.405C16.7991 11.5469 18.7744 12.4722 21.2112 12.4722C23.1818 12.4722 24.8503 11.867 25.4166 11.0316C26.413 12.1153 27.1349 13.3581 27.5822 14.6724C27.0972 14.4607 26.4397 14.2533 25.6509 14.0747C23.6894 13.631 20.9292 13.3488 17.8818 13.3488C14.8345 13.3488 12.0743 13.6309 10.1128 14.0747C9.25594 14.2686 8.5505 14.4966 8.057 14.7271C8.33183 13.9037 8.71024 13.1186 9.18312 12.3907L9.51206 11.8842L3.05394 7.9904L3.92231 7.1229L6.85587 8.74309L8.6005 6.9984L6.96425 4.08371L7.83019 3.21859L7.83006 3.21865ZM7.76212 15.7991C7.79225 15.8166 7.8235 15.8341 7.85625 15.8516C8.34937 16.1153 9.13187 16.382 10.1127 16.6039C12.0741 17.0477 14.8344 17.3298 17.8817 17.3298C20.9291 17.3298 23.6893 17.0477 25.6507 16.6039C26.6312 16.382 27.4134 16.1156 27.9066 15.8518C27.9838 16.216 28.0411 16.5841 28.0782 16.9545C27.4887 17.2218 26.753 17.4478 25.8861 17.644C23.8108 18.1136 20.9942 18.3963 17.8817 18.3963C14.7691 18.3963 11.9526 18.1136 9.87737 17.644C8.9605 17.4365 8.18987 17.1959 7.58425 16.908C7.62327 16.5354 7.68263 16.1651 7.76206 15.799L7.76212 15.7991Z" fill="#7255B1"/>
</svg>
